<?xml version="1.0" encoding="UTF-8" standalone="no"?>
<!-- Created with Inkscape (http://www.inkscape.org/) -->

<svg
   width="107.26065"
   height="107.26064"
   viewBox="0 0 28.37938 28.379378"
   version="1.1"
   id="svg1"
   xml:space="preserve"
   xmlns:xlink="http://www.w3.org/1999/xlink"
   xmlns="http://www.w3.org/2000/svg"
   xmlns:svg="http://www.w3.org/2000/svg"><defs
     id="defs1"><linearGradient
       id="linearGradient11"><stop
         style="stop-color:#dd2080;stop-opacity:1;"
         offset="0"
         id="stop10" /><stop
         style="stop-color:#00dd88;stop-opacity:1;"
         offset="1"
         id="stop11" /></linearGradient><filter
       style="color-interpolation-filters:sRGB"
       id="filter23"
       x="-0.039805859"
       y="-0.039805859"
       width="1.0796117"
       height="1.0796117"><feGaussianBlur
         stdDeviation="2.6993931"
         id="feGaussianBlur23" /></filter><linearGradient
       xlink:href="#linearGradient11"
       id="linearGradient34"
       gradientUnits="userSpaceOnUse"
       gradientTransform="translate(153.47229,-106.96709)"
       x1="102.79646"
       y1="162.35774"
       x2="131.17584"
       y2="133.97836" /><linearGradient
       xlink:href="#linearGradient11"
       id="linearGradient73"
       x1="0"
       y1="24"
       x2="24"
       y2="0"
       gradientUnits="userSpaceOnUse" /></defs><g
     id="g74"
     transform="translate(-256.01877,-27.261293)"><rect
       style="fill:none;fill-opacity:1;stroke:url(#linearGradient34);stroke-width:0.5;stroke-linecap:round;stroke-linejoin:round;stroke-dasharray:none;paint-order:stroke fill markers"
       id="rect27-3"
       width="27.879385"
       height="27.879385"
       x="256.26877"
       y="27.511288"
       ry="1.3229166" /><path
       style="font-size:2.79493px;-inkscape-font-specification:sans-serif;text-align:center;text-anchor:middle;fill:#ffffff;stroke-width:0.99033;stroke-linejoin:round;stroke-dasharray:2.97099, 0.99033;paint-order:stroke fill markers"
       d="m 266.07204,53.156214 q -0.0751,0.0328 -0.13647,0.0614 -0.06,0.0287 -0.15831,0.06 -0.0832,0.0259 -0.1815,0.0437 -0.0969,0.0191 -0.21426,0.0191 -0.22109,0 -0.40259,-0.0614 -0.18014,-0.0628 -0.31389,-0.19516 -0.13101,-0.12964 -0.2047,-0.32889 -0.0737,-0.20061 -0.0737,-0.46537 0,-0.2511 0.071,-0.44899 0.071,-0.19788 0.20471,-0.33435 0.12964,-0.13238 0.31251,-0.20198 0.18424,-0.0696 0.40805,-0.0696 0.16377,0 0.32617,0.0396 0.16376,0.0396 0.36301,0.1392 v 0.3207 h -0.0205 q -0.16786,-0.14056 -0.33299,-0.2047 -0.16513,-0.0641 -0.35346,-0.0641 -0.15421,0 -0.2784,0.0505 -0.12282,0.0491 -0.21972,0.15421 -0.0942,0.10236 -0.14739,0.2593 -0.0519,0.15558 -0.0519,0.36028 0,0.21426 0.0573,0.36847 0.0587,0.15422 0.15012,0.25111 0.0955,0.10099 0.22245,0.15012 0.12828,0.0478 0.27021,0.0478 0.19515,0 0.36574,-0.0669 0.17059,-0.0669 0.31935,-0.20061 h 0.0191 z m 1.91196,-0.6687 q 0,0.22108 -0.0491,0.38621 -0.0478,0.16376 -0.1583,0.27294 -0.10509,0.10372 -0.24565,0.15148 -0.14057,0.0478 -0.32753,0.0478 -0.19106,0 -0.33299,-0.0505 -0.14193,-0.0505 -0.23883,-0.14876 -0.11054,-0.1119 -0.15967,-0.27021 -0.0478,-0.15831 -0.0478,-0.38894 v -1.21596 h 0.27021 v 1.2296 q 0,0.16513 0.0218,0.26066 0.0232,0.0955 0.0764,0.17332 0.0601,0.0887 0.1624,0.13374 0.10372,0.045 0.24838,0.045 0.14602,0 0.24838,-0.0437 0.10235,-0.045 0.16376,-0.13511 0.0532,-0.0778 0.0751,-0.17741 0.0232,-0.10099 0.0232,-0.24974 v -1.23643 h 0.27021 z m 2.19719,0.81609 h -0.35073 l -0.67963,-0.80791 h -0.38075 v 0.80791 h -0.27022 v -2.03205 h 0.56909 q 0.18424,0 0.30706,0.0246 0.12282,0.0232 0.22108,0.0846 0.11054,0.0696 0.17196,0.17605 0.0628,0.10509 0.0628,0.26749 0,0.21971 -0.11054,0.36847 -0.11054,0.14739 -0.30433,0.22245 z m -0.63186,-1.46024 q 0,-0.0873 -0.0314,-0.15421 -0.03,-0.0682 -0.10099,-0.11464 -0.0587,-0.0396 -0.1392,-0.0546 -0.0805,-0.0164 -0.18969,-0.0164 h -0.31798 v 0.76697 h 0.27294 q 0.12828,0 0.22381,-0.0218 0.0955,-0.0232 0.1624,-0.0846 0.0614,-0.0573 0.0901,-0.13101 0.03,-0.0751 0.03,-0.1897 z m 2.3705,0.88024 q 0,0.11873 -0.0559,0.23473 -0.0546,0.116 -0.15421,0.19652 -0.10918,0.0873 -0.2552,0.13647 -0.14466,0.0491 -0.34937,0.0491 -0.21972,0 -0.39577,-0.0409 -0.17468,-0.0409 -0.35619,-0.12146 v -0.33845 h 0.0191 q 0.15421,0.12828 0.35619,0.19788 0.20198,0.0696 0.37939,0.0696 0.25111,0 0.39031,-0.0942 0.14056,-0.0942 0.14056,-0.25111 0,-0.1351 -0.0669,-0.19924 -0.0655,-0.0641 -0.20061,-0.0996 -0.10235,-0.0273 -0.22245,-0.045 -0.11873,-0.0178 -0.25247,-0.045 -0.27021,-0.0573 -0.40123,-0.19515 -0.12964,-0.1392 -0.12964,-0.36165 0,-0.2552 0.21562,-0.4176 0.21562,-0.16377 0.54725,-0.16377 0.21426,0 0.39304,0.0409 0.17877,0.0409 0.31661,0.10099 v 0.31934 h -0.0191 q -0.116,-0.0983 -0.30569,-0.1624 -0.18833,-0.0655 -0.38621,-0.0655 -0.21699,0 -0.34937,0.0901 -0.13101,0.0901 -0.13101,0.232 0,0.12692 0.0655,0.19925 0.0655,0.0723 0.23064,0.11054 0.0873,0.0191 0.24838,0.0464 0.16103,0.0273 0.27294,0.0559 0.22654,0.0601 0.34118,0.18151 0.11463,0.12146 0.11463,0.33981 z m 1.94881,-1.21869 q 0.12419,0.13647 0.1897,0.33436 0.0669,0.19788 0.0669,0.44899 0,0.2511 -0.0682,0.45035 -0.0669,0.19789 -0.18833,0.33026 -0.12555,0.13784 -0.29751,0.20744 -0.17058,0.0696 -0.3903,0.0696 -0.21426,0 -0.39031,-0.071 -0.17468,-0.071 -0.29751,-0.20607 -0.12282,-0.1351 -0.18969,-0.33162 -0.0655,-0.19652 -0.0655,-0.44899 0,-0.24838 0.0655,-0.4449 0.0655,-0.19788 0.19106,-0.33845 0.12009,-0.13374 0.2975,-0.2047 0.17878,-0.071 0.38895,-0.071 0.21835,0 0.39167,0.0723 0.17468,0.071 0.29614,0.20334 z m -0.0246,0.78335 q 0,-0.39577 -0.17742,-0.61003 -0.17741,-0.21562 -0.48447,-0.21562 -0.30979,0 -0.4872,0.21562 -0.17605,0.21426 -0.17605,0.61003 0,0.39986 0.18014,0.61275 0.18015,0.21153 0.48311,0.21153 0.30297,0 0.48174,-0.21153 0.18015,-0.21289 0.18015,-0.61275 z m 2.18627,0.43534 q 0,0.11873 -0.056,0.23473 -0.0546,0.116 -0.15421,0.19652 -0.10918,0.0873 -0.2552,0.13647 -0.14466,0.0491 -0.34937,0.0491 -0.21972,0 -0.39576,-0.0409 -0.17469,-0.0409 -0.35619,-0.12146 v -0.33845 h 0.0191 q 0.15421,0.12828 0.35619,0.19788 0.20198,0.0696 0.37939,0.0696 0.25111,0 0.39031,-0.0942 0.14056,-0.0942 0.14056,-0.25111 0,-0.1351 -0.0669,-0.19924 -0.0655,-0.0641 -0.20061,-0.0996 -0.10235,-0.0273 -0.22245,-0.045 -0.11873,-0.0178 -0.25247,-0.045 -0.27021,-0.0573 -0.40122,-0.19515 -0.12965,-0.1392 -0.12965,-0.36165 0,-0.2552 0.21562,-0.4176 0.21563,-0.16377 0.54725,-0.16377 0.21426,0 0.39304,0.0409 0.17878,0.0409 0.31661,0.10099 v 0.31934 h -0.0191 q -0.116,-0.0983 -0.3057,-0.1624 -0.18833,-0.0655 -0.38621,-0.0655 -0.21699,0 -0.34937,0.0901 -0.13101,0.0901 -0.13101,0.232 0,0.12692 0.0655,0.19925 0.0655,0.0723 0.23063,0.11054 0.0873,0.0191 0.24838,0.0464 0.16104,0.0273 0.27294,0.0559 0.22654,0.0601 0.34118,0.18151 0.11464,0.12146 0.11464,0.33981 z"
       id="path54"
       aria-label="CURSOS" /><g
       id="g71"
       transform="matrix(0.52483672,0,0,0.52483672,263.91024,32.841707)"><path
         d="M 0,0 H 24 V 24 H 0 Z"
         fill="none"
         id="path1" /><path
         id="path73"
         style="color:#000000;fill:url(#linearGradient73);stroke-linecap:round;stroke-linejoin:round;-inkscape-stroke:none"
         d="m 11.999727,-0.6032448 c -0.118792,1.5414e-4 -0.234895,0.0353764 -0.33375,0.10125 L -0.33402275,7.4976927 c -0.35833625,0.2387735 -0.35833625,0.765289 0,1.0040625 L 11.665977,16.50238 c 0.202448,0.134722 0.46599,0.134722 0.668438,0 l 8.88,-5.922187 v 8.085937 c 0,0.480029 0.257469,0.910375 0.58875,1.152188 0.331281,0.241813 0.719212,0.340717 1.101562,0.344062 0.382351,0.0033 0.773398,-0.08882 1.109063,-0.331875 0.335664,-0.243055 0.589687,-0.680719 0.589687,-1.164375 V 8.0001927 c 8.8e-5,-0.2019804 -0.10091,-0.3906033 -0.269062,-0.5025 l -12,-7.9996875 c -0.09912,-0.0660506 -0.215576,-0.10128079 -0.334688,-0.10125 z M 4.3928522,13.930818 c -0.1094371,-0.0056 -0.2183346,0.0187 -0.315,0.07031 -0.1963388,0.105457 -0.3185418,0.310571 -0.3178125,0.533438 v 5.331562 c -8.77e-5,0.20198 0.10091,0.390603 0.2690625,0.5025 l 7.6368748,5.093438 c 0.202448,0.134722 0.46599,0.134722 0.668438,0 l 7.635937,-5.093438 c 0.168509,-0.111681 0.269879,-0.300341 0.27,-0.5025 v -5.331562 c 0.0012,-0.483321 -0.538011,-0.771773 -0.939375,-0.5025 l -7.30125,4.869375 -7.3003123,-4.869375 c -0.091091,-0.06097 -0.1970741,-0.09598 -0.3065625,-0.10125 z" /></g></g></svg>
