<?xml version="1.0" encoding="UTF-8" standalone="no"?>
<!-- Created with Inkscape (http://www.inkscape.org/) -->

<svg
   width="107.26074"
   height="107.26068"
   viewBox="0 0 28.379404 28.379389"
   version="1.1"
   id="svg1"
   xml:space="preserve"
   xmlns:xlink="http://www.w3.org/1999/xlink"
   xmlns="http://www.w3.org/2000/svg"
   xmlns:svg="http://www.w3.org/2000/svg"><defs
     id="defs1"><linearGradient
       id="linearGradient11"><stop
         style="stop-color:#dd2080;stop-opacity:1;"
         offset="0"
         id="stop10" /><stop
         style="stop-color:#00dd88;stop-opacity:1;"
         offset="1"
         id="stop11" /></linearGradient><linearGradient
       xlink:href="#linearGradient11"
       id="linearGradient81"
       gradientUnits="userSpaceOnUse"
       gradientTransform="translate(-702.76936,-33.755734)"
       x1="102.79646"
       y1="162.35774"
       x2="131.17584"
       y2="133.97836" /></defs><g
     id="layer1"
     transform="translate(600.22291,-100.47263)"><rect
       style="fill:none;fill-opacity:1;stroke:url(#linearGradient81);stroke-width:0.5;stroke-linecap:round;stroke-linejoin:round;stroke-dasharray:none;paint-order:stroke fill markers"
       id="rect25"
       width="27.879385"
       height="27.879385"
       x="-599.9729"
       y="100.72263"
       ry="1.3229166" /><path
       style="font-size:2.79493px;-inkscape-font-specification:sans-serif;text-align:center;text-anchor:middle;fill:#ffffff;stroke-width:0.99033;stroke-linejoin:round;stroke-dasharray:2.97099, 0.99033;paint-order:stroke fill markers"
       d="m -586.61392,125.53635 q 0.0655,0.0587 0.10781,0.14739 0.0423,0.0887 0.0423,0.22927 0,0.1392 -0.0505,0.2552 -0.0505,0.116 -0.14193,0.20198 -0.10235,0.0955 -0.24155,0.14193 -0.13784,0.045 -0.30297,0.045 -0.16922,0 -0.33299,-0.0409 -0.16376,-0.0396 -0.26885,-0.0873 v -0.28522 h 0.0205 q 0.11601,0.0764 0.27295,0.12691 0.15694,0.0505 0.30296,0.0505 0.086,0 0.18287,-0.0287 0.0969,-0.0287 0.15695,-0.0846 0.0628,-0.0601 0.0928,-0.13238 0.0314,-0.0723 0.0314,-0.18287 0,-0.10918 -0.0355,-0.18014 -0.0341,-0.0723 -0.0955,-0.11327 -0.0614,-0.0423 -0.14875,-0.0573 -0.0873,-0.0164 -0.18833,-0.0164 h -0.12282 v -0.22654 h 0.0955 q 0.20744,0 0.33027,-0.086 0.12418,-0.0873 0.12418,-0.25383 0,-0.0737 -0.0314,-0.12829 -0.0314,-0.0559 -0.0874,-0.0914 -0.0587,-0.0355 -0.12555,-0.0491 -0.0669,-0.0136 -0.15148,-0.0136 -0.12965,0 -0.27567,0.0464 -0.14603,0.0464 -0.27568,0.13101 h -0.0136 v -0.28522 q 0.0969,-0.0478 0.25793,-0.0873 0.1624,-0.041 0.31388,-0.041 0.14875,0 0.26203,0.0273 0.11327,0.0273 0.2047,0.0873 0.0983,0.0655 0.14876,0.15831 0.0505,0.0928 0.0505,0.21699 0,0.16922 -0.12009,0.29614 -0.11873,0.12555 -0.28113,0.15831 v 0.0191 q 0.0655,0.0109 0.15011,0.0464 0.0846,0.0341 0.1433,0.086 z m 2.35003,-0.0355 q 0,0.27703 -0.12146,0.50221 -0.12009,0.22518 -0.3207,0.34937 -0.13921,0.086 -0.31116,0.12418 -0.17059,0.0382 -0.45035,0.0382 h -0.51314 v -2.03206 h 0.50768 q 0.2975,0 0.47219,0.0437 0.17605,0.0423 0.2975,0.11737 0.20744,0.12964 0.32344,0.34527 0.116,0.21562 0.116,0.51177 z m -0.28249,-0.004 q 0,-0.23882 -0.0833,-0.40259 -0.0833,-0.16376 -0.24838,-0.25793 -0.12009,-0.0682 -0.2552,-0.0942 -0.13511,-0.0273 -0.32344,-0.0273 h -0.25383 v 1.56806 h 0.25383 q 0.19516,0 0.33982,-0.0287 0.14602,-0.0287 0.26748,-0.10645 0.15148,-0.0969 0.22654,-0.2552 0.0764,-0.15831 0.0764,-0.39577 z"
       id="text86"
       aria-label="3D" /><g
       id="g149"
       transform="translate(-36.874938,2.0593559)"
       style="stroke:none"><g
         id="g148"
         style="stroke:none"><path
           style="opacity:0.487972;fill:#ffffff;stroke:none;stroke-width:0.1;stroke-linejoin:round;stroke-dasharray:none;paint-order:stroke fill markers"
           d="m -556.7571,110.61963 6.25414,-3.14048 3.96967,10.62366 -7.01269,0.89905 z"
           id="path119" /><path
           style="opacity:0.487972;fill:#999999;stroke:none;stroke-width:0.1;stroke-linejoin:round;stroke-dasharray:none;paint-order:stroke fill markers"
           d="m -549.79312,107.22481 5.28942,-1.10262 2.94426,8.21119 -4.26314,3.46138 z"
           id="path111" /><path
           style="opacity:0.487972;fill:#cccccc;stroke:none;stroke-width:0.1;stroke-linejoin:round;stroke-dasharray:none;paint-order:stroke fill markers"
           d="m -550.31659,106.72558 -0.18637,0.75356 3.96967,10.62367 0.5826,0.27077 0.12811,-0.57882 -3.97054,-10.56995 z"
           id="path114" /><path
           style="opacity:0.487972;fill:#cccccc;stroke:none;stroke-width:0.1;stroke-linejoin:round;stroke-dasharray:none;paint-order:stroke fill markers"
           d="m -550.31659,106.72558 0.52347,0.49923 5.28942,-1.10262 -0.33866,-0.1338 z"
           id="path115" /><path
           style="opacity:0.487972;fill:#cccccc;stroke:none;stroke-width:0.1;stroke-linejoin:round;stroke-dasharray:none;paint-order:stroke fill markers"
           d="m -550.31659,106.72558 -0.18637,0.75356 -6.25414,3.14049 0.18587,-0.66307 z"
           id="path116" /><path
           style="opacity:0.487972;fill:#cccccc;stroke:none;stroke-width:0.1;stroke-linejoin:round;stroke-dasharray:none;paint-order:stroke fill markers"
           d="m -545.95069,118.37358 -0.5826,-0.27077 -7.01269,0.89905 0.31516,0.21569 z"
           id="path117" /><path
           style="opacity:0.487972;fill:#cccccc;stroke:none;stroke-width:0.1;stroke-linejoin:round;stroke-dasharray:none;paint-order:stroke fill markers"
           d="m -545.95069,118.37358 0.12811,-0.57882 4.26314,-3.46138 -0.0606,0.35734 z"
           id="path118" /></g><path
         style="opacity:0.5189;fill:#101520;fill-opacity:1;stroke:none;stroke-width:0.0531002"
         d="m -552.68397,118.29483 c -0.26501,-0.48898 -0.44498,-1.06487 -0.58924,-1.88532 -0.10232,-0.57983 -0.13373,-0.9369 -0.14483,-1.62513 -0.0142,-0.88517 0.11572,-1.81705 0.3359,-2.40846 0.12536,-0.33673 0.19528,-0.47552 0.27509,-0.54597 0.11778,-0.10398 0.45117,-0.14513 0.81516,-0.10064 0.15033,0.0184 0.46747,0.11504 0.62115,0.1893 0.16536,0.0799 0.40934,0.24186 0.56991,0.37828 0.30757,0.26133 0.58276,0.65537 0.7125,1.02021 0.0213,0.0588 0.0537,0.14152 0.0728,0.18362 0.0243,0.0542 0.032,0.0851 0.0254,0.1058 -0.004,0.0159 -0.0139,0.0834 -0.0197,0.1496 -0.0164,0.18422 -0.0931,0.62564 -0.14974,0.86334 -0.0317,0.1329 -0.13991,0.49491 -0.1909,0.6386 -0.16035,0.45179 -0.27455,0.72334 -0.46569,1.1074 -0.17017,0.34195 -0.58539,1.01193 -0.61485,0.99213 -0.0101,-0.007 -0.67586,-3.30102 -0.71015,-3.51727 -0.03,-0.18953 -0.03,-0.14915 6.4e-4,0.18598 0.0138,0.15085 0.0315,0.38896 0.0394,0.52915 0.008,0.14022 0.0215,0.35977 0.0304,0.48794 0.0473,0.68402 0.0754,1.12419 0.0799,1.24916 0.003,0.077 0.0148,0.28725 0.0267,0.4672 0.012,0.17993 0.0263,0.39715 0.0318,0.48267 0.005,0.0855 0.0201,0.26457 0.0322,0.39788 l 0.0221,0.2424 -0.13443,0.12537 c -0.15112,0.14095 -0.54094,0.47964 -0.55515,0.48235 -0.005,8.4e-4 -0.0575,-0.087 -0.11614,-0.19559 z m 2.89833,-6.14364 c -0.0167,-0.0651 -0.1805,-0.39862 -0.26528,-0.53913 -0.11619,-0.19261 -0.33363,-0.46514 -0.4667,-0.58491 -0.18649,-0.16783 -0.53997,-0.39446 -0.78326,-0.5022 -0.1705,-0.0755 -0.40994,-0.15516 -0.55874,-0.18589 -0.13306,-0.0275 -0.49982,-0.0634 -0.54949,-0.0538 -0.009,0.002 -0.0108,0.0401 -0.003,0.10017 0.0158,0.11715 -10e-4,0.16511 -0.0866,0.23053 -0.0985,0.0761 -0.20203,0.0953 -0.47839,0.0889 -0.13049,-0.003 -0.28135,-0.01 -0.33519,-0.0149 -0.0937,-0.009 -0.32383,-0.0609 -0.3263,-0.0735 -0.003,-0.0159 0.0312,-0.11277 0.0712,-0.2011 0.0998,-0.22052 0.31258,-0.45153 0.53902,-0.58519 0.31998,-0.1889 0.85012,-0.29512 1.21409,-0.24326 0.32946,0.047 0.65975,0.17926 0.93396,0.37417 0.36096,0.25656 0.71069,0.7177 0.9053,1.19372 0.0656,0.16071 0.18299,0.70953 0.1911,0.89314 0.003,0.0741 0.003,0.12072 -0.003,0.1034 z m -3.92819,-0.0284 c -0.16492,-0.11588 -0.29201,-0.31157 -0.32979,-0.50776 -0.0159,-0.0829 -0.0121,-0.23219 0.008,-0.30001 0.0523,-0.17916 0.30567,-0.45496 0.44392,-0.48324 0.0595,-0.0122 0.16833,0.0219 0.23269,0.0729 0.076,0.0602 0.14425,0.17107 0.15324,0.24856 0.006,0.0516 0.0108,0.0588 0.0347,0.0548 0.0153,-0.003 0.1003,0.002 0.18876,0.01 0.28169,0.0256 0.53767,0.13925 0.66427,0.29491 0.0339,0.0418 0.0601,0.0784 0.0579,0.0815 -0.005,0.009 -0.19659,-0.0185 -0.37342,-0.0541 -0.24567,-0.0494 -0.3886,-0.0521 -0.60346,-0.0112 -0.16632,0.0317 -0.18462,0.0379 -0.25026,0.0859 -0.17123,0.12526 -0.23378,0.33092 -0.15207,0.49998 0.0188,0.0396 0.0335,0.0738 0.0318,0.0762 -0.001,0.002 -0.0493,-0.0284 -0.10589,-0.0682 z"
         id="path1-6" /></g></g></svg>
