<?xml version="1.0" encoding="UTF-8" standalone="no"?>
<!-- Created with Inkscape (http://www.inkscape.org/) -->

<svg
   width="107.26074"
   height="107.26068"
   viewBox="0 0 28.379404 28.379389"
   version="1.1"
   id="svg1"
   xml:space="preserve"
   xmlns:xlink="http://www.w3.org/1999/xlink"
   xmlns="http://www.w3.org/2000/svg"
   xmlns:svg="http://www.w3.org/2000/svg"><defs
     id="defs1"><linearGradient
       id="linearGradient11"><stop
         style="stop-color:#dd2080;stop-opacity:1;"
         offset="0"
         id="stop10" /><stop
         style="stop-color:#00dd88;stop-opacity:1;"
         offset="1"
         id="stop11" /></linearGradient><linearGradient
       xlink:href="#linearGradient11"
       id="linearGradient80"
       gradientUnits="userSpaceOnUse"
       gradientTransform="translate(-629.01949,-33.755733)"
       x1="102.79646"
       y1="162.35774"
       x2="131.17584"
       y2="133.97836" /></defs><g
     id="layer1"
     transform="translate(526.47303,-100.47263)"><rect
       style="fill:none;fill-opacity:1;stroke:url(#linearGradient80);stroke-width:0.5;stroke-linecap:round;stroke-linejoin:round;stroke-dasharray:none;paint-order:stroke fill markers"
       id="rect26"
       width="27.879385"
       height="27.879385"
       x="-526.22302"
       y="100.72263"
       ry="1.3229166" /><g
       id="layer1-3"
       transform="matrix(2.5746814,0,0,2.5746814,-852.89264,-91.762354)"
       style="opacity:0.515464"><rect
         style="fill:none;stroke:none;stroke-width:0.302423;stroke-linecap:round"
         id="rect572"
         width="6.3499999"
         height="6.3499999"
         x="129.11667"
         y="76.199997" /><path
         d="m 132.74649,78.942499 c -0.007,-0.0083 -0.0127,-0.01714 -0.0206,-0.02508 h -0.001 c -0.24797,-0.243683 -0.6731,-0.220918 -0.89758,-2.7e-4 -0.22447,0.2206 -0.22383,0.661197 6.4e-4,0.88183 0.003,0.0032 0.006,0.0048 0.009,0.0076 0.008,0.0076 0.013,0.01714 0.0209,0.02508 h 9.5e-4 c 0.24797,0.243682 0.6731,0.221203 0.89758,3e-4 0.22447,-0.220601 0.22384,-0.661198 -6.4e-4,-0.88183 -0.003,-0.0032 -0.006,-0.0044 -0.009,-0.0073 m -1.36934,-0.466222 -0.44895,-0.441518 c -0.67342,0.662151 -0.64199,2.018265 0.0314,2.680097 l 0.44895,-0.441201 c -0.44895,-0.441232 -0.48038,-1.356145 -0.0314,-1.797378 m -0.8979,-0.88275 -0.44895,-0.441233 c -1.34716,1.323983 -1.09125,3.341962 0.0314,4.445027 l 0.44895,-0.441233 c -0.89789,-0.882433 -0.92932,-2.679811 -0.0314,-3.562561 m 3.14454,0.441232 -0.44894,0.441518 c 0.44894,0.441233 0.48038,1.356146 0.0314,1.797378 l 0.44894,0.441201 c 0.67343,-0.661832 0.64199,-2.017946 -0.0314,-2.680097 m 0.92933,3.562562 -0.44895,-0.441233 c 0.89822,-0.882433 0.86678,-2.679811 -0.0314,-3.562561 l 0.44895,-0.44155 c 1.12269,1.103382 1.37859,3.121361 0.0314,4.445026"
         id="path518"
         style="fill:#ffffff;fill-rule:evenodd;stroke:none;stroke-width:0.317501" /></g><path
       style="font-size:2.79493px;-inkscape-font-specification:sans-serif;text-align:center;text-anchor:middle;fill:#ffffff;stroke-width:0.99033;stroke-linejoin:round;stroke-dasharray:2.97099, 0.99033;paint-order:stroke fill markers"
       d="m -515.01892,126.51485 h -0.35073 l -0.67963,-0.80791 h -0.38076 v 0.80791 h -0.27021 v -2.03206 h 0.56909 q 0.18423,0 0.30706,0.0246 0.12282,0.0232 0.22108,0.0846 0.11054,0.0696 0.17195,0.17605 0.0628,0.10508 0.0628,0.26748 0,0.21972 -0.11054,0.36847 -0.11054,0.14739 -0.30433,0.22245 z m -0.63186,-1.46024 q 0,-0.0874 -0.0314,-0.15422 -0.03,-0.0682 -0.10099,-0.11463 -0.0587,-0.0396 -0.1392,-0.0546 -0.0805,-0.0164 -0.1897,-0.0164 h -0.31798 v 0.76697 h 0.27295 q 0.12828,0 0.22381,-0.0218 0.0955,-0.0232 0.1624,-0.0846 0.0614,-0.0573 0.0901,-0.13101 0.03,-0.0751 0.03,-0.18969 z m 2.49605,1.46024 h -0.28795 l -0.19925,-0.56636 h -0.87887 l -0.19925,0.56636 h -0.27431 l 0.73968,-2.03206 h 0.36028 z m -0.57045,-0.79836 -0.35619,-0.9976 -0.35755,0.9976 z m 2.59569,-0.21562 q 0,0.27703 -0.12146,0.50221 -0.1201,0.22518 -0.32071,0.34937 -0.1392,0.086 -0.31116,0.12418 -0.17058,0.0382 -0.45035,0.0382 h -0.51313 v -2.03206 h 0.50767 q 0.29751,0 0.47219,0.0437 0.17605,0.0423 0.29751,0.11737 0.20743,0.12964 0.32344,0.34527 0.116,0.21562 0.116,0.51177 z m -0.2825,-0.004 q 0,-0.23882 -0.0833,-0.40259 -0.0832,-0.16376 -0.24837,-0.25793 -0.1201,-0.0682 -0.25521,-0.0942 -0.1351,-0.0273 -0.32343,-0.0273 h -0.25384 v 1.56806 h 0.25384 q 0.19515,0 0.33981,-0.0287 0.14602,-0.0287 0.26748,-0.10645 0.15149,-0.0969 0.22655,-0.2552 0.0764,-0.15831 0.0764,-0.39577 z m 1.43568,1.01808 h -0.80245 v -0.20744 h 0.26612 v -1.61718 h -0.26612 v -0.20744 h 0.80245 v 0.20744 h -0.26612 v 1.61718 h 0.26612 z m 1.97474,-1.79869 q 0.12418,0.13647 0.18969,0.33435 0.0669,0.19788 0.0669,0.44899 0,0.25111 -0.0682,0.45036 -0.0669,0.19788 -0.18833,0.33026 -0.12556,0.13783 -0.29751,0.20743 -0.17059,0.0696 -0.39031,0.0696 -0.21426,0 -0.39031,-0.071 -0.17468,-0.071 -0.2975,-0.20607 -0.12283,-0.13511 -0.1897,-0.33163 -0.0655,-0.19652 -0.0655,-0.44899 0,-0.24838 0.0655,-0.44489 0.0655,-0.19789 0.19106,-0.33845 0.1201,-0.13375 0.29751,-0.20471 0.17878,-0.071 0.38894,-0.071 0.21835,0 0.39167,0.0723 0.17469,0.071 0.29615,0.20335 z m -0.0246,0.78334 q 0,-0.39577 -0.17741,-0.61003 -0.17741,-0.21562 -0.48447,-0.21562 -0.30979,0 -0.48721,0.21562 -0.17604,0.21426 -0.17604,0.61003 0,0.39986 0.18014,0.61276 0.18014,0.21153 0.48311,0.21153 0.30296,0 0.48174,-0.21153 0.18014,-0.2129 0.18014,-0.61276 z"
       id="text85"
       aria-label="RADIO" /></g></svg>
