<?xml version="1.0" encoding="UTF-8" standalone="no"?>
<!-- Created with Inkscape (http://www.inkscape.org/) -->

<svg
   width="107.26074"
   height="107.26068"
   viewBox="0 0 28.379404 28.379389"
   version="1.1"
   id="svg1"
   xml:space="preserve"
   xmlns:xlink="http://www.w3.org/1999/xlink"
   xmlns="http://www.w3.org/2000/svg"
   xmlns:svg="http://www.w3.org/2000/svg"><defs
     id="defs1"><linearGradient
       id="linearGradient11"><stop
         style="stop-color:#dd2080;stop-opacity:1;"
         offset="0"
         id="stop10" /><stop
         style="stop-color:#00dd88;stop-opacity:1;"
         offset="1"
         id="stop11" /></linearGradient><linearGradient
       xlink:href="#linearGradient11"
       id="linearGradient76"
       gradientUnits="userSpaceOnUse"
       gradientTransform="translate(-629.01949,3.2258305)"
       x1="102.79646"
       y1="162.35774"
       x2="131.17584"
       y2="133.97836" /></defs><g
     id="layer1"
     transform="translate(526.47303,-137.45421)"><rect
       style="fill:none;fill-opacity:1;stroke:url(#linearGradient76);stroke-width:0.5;stroke-linecap:round;stroke-linejoin:round;stroke-dasharray:none;paint-order:stroke fill markers"
       id="rect44"
       width="27.879385"
       height="27.879385"
       x="-526.22302"
       y="137.70421"
       ry="1.3229166" /><path
       id="path2-1"
       style="opacity:0.477663;fill:#ffffff;stroke-width:0.105485"
       d="m -512.26709,142.94445 c -0.38255,0 -0.60182,0.0104 -0.60182,0.0279 0,0.0146 -0.0494,0.0279 -0.10875,0.0279 -0.15771,0 -0.69602,0.0987 -1.05614,0.19375 -1.77454,0.46856 -3.36094,1.77781 -4.17934,3.44833 -0.30666,0.62594 -0.53364,1.34671 -0.60718,1.92925 -0.0188,0.14438 -0.0425,0.26163 -0.055,0.26163 -0.0125,0 -0.0225,0.32648 -0.0225,0.7256 0,0.46515 0.008,0.72563 0.0279,0.72563 0.0146,0 0.0279,0.0352 0.0279,0.0785 0,0.0433 0.0248,0.21662 0.055,0.38433 0.39333,2.17832 1.89698,4.0385 3.96508,4.90496 0.56317,0.23594 1.47169,0.46508 1.84421,0.46508 0.0594,0 0.10771,0.0125 0.10771,0.0279 h 10e-4 c 0,0.0167 0.21823,0.0279 0.59967,0.0279 0.33002,0 0.60073,-0.008 0.60073,-0.0215 0,-0.0125 0.12937,-0.0373 0.28746,-0.056 0.34358,-0.0408 0.87156,-0.16604 1.27468,-0.30252 0.34273,-0.11604 1.04086,-0.45021 1.34036,-0.64167 0.85098,-0.54415 1.63519,-1.34302 2.14673,-2.18654 0.4345,-0.71646 0.76866,-1.64048 0.87096,-2.40836 0.0208,-0.14958 0.0456,-0.27237 0.0581,-0.27237 0.0125,0 0.0215,-0.32652 0.0215,-0.72563 0,-0.3991 -0.008,-0.7256 -0.0215,-0.7256 -0.0125,0 -0.0373,-0.12271 -0.0581,-0.2724 -0.11667,-0.87247 -0.49932,-1.86081 -1.02169,-2.64302 -0.29002,-0.43429 -0.39171,-0.55864 -0.78161,-0.95925 -0.86077,-0.88441 -1.91137,-1.49458 -3.08229,-1.79037 -0.35939,-0.0908 -0.79739,-0.16771 -0.96031,-0.16792 -0.064,-2.1e-4 -0.0998,-0.0104 -0.0894,-0.0279 0.0104,-0.0167 -0.18959,-0.0279 -0.58353,-0.0279 z m 0.10666,1.51477 c 0.27746,0.004 0.55086,0.025 0.73746,0.0592 1.43396,0.2628 2.61725,1.03661 3.4225,2.23609 0.32194,0.47956 0.61992,1.20812 0.74283,1.81729 0.0854,0.42358 0.10605,1.26648 0.0421,1.70317 -0.3349,2.2837 -2.12815,4.05416 -4.4065,4.34943 -0.29413,0.0385 -0.87107,0.05 -1.13579,0.0237 -1.06934,-0.10625 -2.06838,-0.53668 -2.8885,-1.24454 -0.84132,-0.72614 -1.44148,-1.75891 -1.66657,-2.87019 -0.056,-0.27856 -0.0635,-0.3997 -0.0635,-0.97433 2.1e-4,-0.57337 0.008,-0.69562 0.0635,-0.97214 0.44207,-2.18325 2.17752,-3.80284 4.38819,-4.09538 0.20479,-0.0271 0.48692,-0.0373 0.76438,-0.0323 z m -0.12271,1.29191 c -0.26881,0 -0.48858,0.0758 -0.65995,0.22717 -0.17146,0.15125 -0.2573,0.346 -0.2573,0.58458 0,0.23186 0.0858,0.42867 0.2573,0.58998 0.17145,0.15792 0.39114,0.23684 0.65995,0.23684 0.27219,0 0.49194,-0.0779 0.65996,-0.23254 0.17146,-0.15459 0.25729,-0.35234 0.25729,-0.59428 0,-0.23858 -0.0858,-0.43337 -0.25729,-0.58458 -0.16791,-0.15125 -0.38777,-0.22717 -0.65996,-0.22717 z m -0.80637,2.45463 v 5.16119 h 1.59229 v -5.16119 z" /><path
       style="font-size:2.79493px;-inkscape-font-specification:sans-serif;text-align:center;text-anchor:middle;fill:#ffffff;stroke-width:0.99033;stroke-linejoin:round;stroke-dasharray:2.97099, 0.99033;paint-order:stroke fill markers"
       d="m -515.40036,162.92371 q 0,0.11873 -0.056,0.23473 -0.0546,0.116 -0.15422,0.19651 -0.10917,0.0873 -0.2552,0.13648 -0.14466,0.0491 -0.34936,0.0491 -0.21972,0 -0.39577,-0.041 -0.17468,-0.0409 -0.35619,-0.12146 v -0.33844 h 0.0191 q 0.15421,0.12828 0.35619,0.19788 0.20197,0.0696 0.37939,0.0696 0.2511,0 0.3903,-0.0942 0.14057,-0.0942 0.14057,-0.2511 0,-0.13511 -0.0669,-0.19925 -0.0655,-0.0641 -0.20061,-0.0996 -0.10236,-0.0273 -0.22245,-0.045 -0.11873,-0.0177 -0.25247,-0.045 -0.27022,-0.0573 -0.40123,-0.19515 -0.12965,-0.1392 -0.12965,-0.36165 0,-0.2552 0.21563,-0.4176 0.21562,-0.16377 0.54725,-0.16377 0.21426,0 0.39303,0.041 0.17878,0.0409 0.31662,0.10098 v 0.31935 h -0.0191 q -0.116,-0.0983 -0.30569,-0.1624 -0.18833,-0.0655 -0.38622,-0.0655 -0.21699,0 -0.34936,0.0901 -0.13102,0.0901 -0.13102,0.232 0,0.12692 0.0655,0.19925 0.0655,0.0723 0.23064,0.11054 0.0873,0.0191 0.24837,0.0464 0.16104,0.0273 0.27295,0.056 0.22654,0.06 0.34117,0.1815 0.11464,0.12146 0.11464,0.33982 z m 1.94881,-1.21869 q 0.12419,0.13647 0.18969,0.33435 0.0669,0.19789 0.0669,0.44899 0,0.25111 -0.0682,0.45036 -0.0669,0.19788 -0.18833,0.33026 -0.12556,0.13783 -0.29751,0.20743 -0.17059,0.0696 -0.39031,0.0696 -0.21426,0 -0.3903,-0.071 -0.17469,-0.071 -0.29751,-0.20607 -0.12283,-0.13511 -0.1897,-0.33163 -0.0655,-0.19652 -0.0655,-0.44899 0,-0.24838 0.0655,-0.44489 0.0655,-0.19789 0.19106,-0.33845 0.1201,-0.13374 0.29751,-0.20471 0.17878,-0.071 0.38894,-0.071 0.21836,0 0.39168,0.0723 0.17468,0.071 0.29614,0.20334 z m -0.0246,0.78334 q 0,-0.39576 -0.17741,-0.61002 -0.17741,-0.21563 -0.48447,-0.21563 -0.30979,0 -0.4872,0.21563 -0.17605,0.21426 -0.17605,0.61002 0,0.39986 0.18014,0.61276 0.18014,0.21153 0.48311,0.21153 0.30296,0 0.48174,-0.21153 0.18014,-0.2129 0.18014,-0.61276 z m 2.24223,0.39031 q 0,0.15148 -0.0573,0.26748 -0.0573,0.116 -0.15421,0.19106 -0.11464,0.0901 -0.25248,0.12829 -0.13647,0.0382 -0.348,0.0382 h -0.72057 v -2.03206 h 0.60184 q 0.22245,0 0.33299,0.0164 0.11054,0.0164 0.21153,0.0682 0.11191,0.0587 0.1624,0.15149 0.0505,0.0914 0.0505,0.21972 0,0.14466 -0.0737,0.24701 -0.0737,0.10099 -0.19652,0.1624 v 0.0109 q 0.20608,0.0423 0.32481,0.1815 0.11873,0.13784 0.11873,0.34937 z m -0.45445,-0.91572 q 0,-0.0737 -0.0246,-0.12419 -0.0246,-0.0505 -0.0791,-0.0819 -0.0641,-0.0368 -0.15558,-0.045 -0.0914,-0.01 -0.22654,-0.01 h -0.32207 v 0.58682 h 0.34936 q 0.12692,0 0.20198,-0.0123 0.0751,-0.0136 0.1392,-0.0546 0.0641,-0.0409 0.0901,-0.10508 0.0273,-0.0655 0.0273,-0.15421 z m 0.17331,0.92664 q 0,-0.12283 -0.0368,-0.19516 -0.0369,-0.0723 -0.13374,-0.12282 -0.0655,-0.0341 -0.15968,-0.0437 -0.0928,-0.0109 -0.22654,-0.0109 h -0.42442 v 0.75605 h 0.35755 q 0.17741,0 0.29068,-0.0177 0.11328,-0.0191 0.18561,-0.0682 0.0764,-0.0532 0.1119,-0.12145 0.0355,-0.0682 0.0355,-0.17605 z m 2.34594,0.61412 h -0.35073 l -0.67962,-0.80791 h -0.38076 v 0.80791 h -0.27021 v -2.03206 h 0.56908 q 0.18424,0 0.30706,0.0246 0.12283,0.0232 0.22109,0.0846 0.11054,0.0696 0.17195,0.17605 0.0628,0.10508 0.0628,0.26748 0,0.21972 -0.11054,0.36847 -0.11054,0.14739 -0.30433,0.22245 z m -0.63186,-1.46024 q 0,-0.0874 -0.0314,-0.15422 -0.03,-0.0682 -0.10098,-0.11463 -0.0587,-0.0396 -0.1392,-0.0546 -0.0805,-0.0164 -0.1897,-0.0164 h -0.31798 v 0.76697 h 0.27294 q 0.12829,0 0.22382,-0.0218 0.0955,-0.0232 0.1624,-0.0846 0.0614,-0.0573 0.0901,-0.13101 0.03,-0.0751 0.03,-0.18969 z m 2.23267,1.46024 h -1.33878 v -2.03206 h 1.33878 v 0.24019 h -1.06857 v 0.5568 h 1.06857 v 0.24019 h -1.06857 v 0.75469 h 1.06857 z"
       id="text84"
       aria-label="SOBRE" /></g></svg>
