<?xml version="1.0" encoding="UTF-8" standalone="no"?>
<!-- Created with Inkscape (http://www.inkscape.org/) -->

<svg
   width="107.26074"
   height="107.26068"
   viewBox="0 0 28.379404 28.379389"
   version="1.1"
   id="svg1"
   xml:space="preserve"
   xmlns:xlink="http://www.w3.org/1999/xlink"
   xmlns="http://www.w3.org/2000/svg"
   xmlns:svg="http://www.w3.org/2000/svg"><defs
     id="defs1"><linearGradient
       id="linearGradient11"><stop
         style="stop-color:#dd2080;stop-opacity:1;"
         offset="0"
         id="stop10" /><stop
         style="stop-color:#00dd88;stop-opacity:1;"
         offset="1"
         id="stop11" /></linearGradient><linearGradient
       id="linearGradient101"><stop
         style="stop-color:#ff00ff;stop-opacity:1"
         offset="0"
         id="stop101" /><stop
         style="stop-color:#00ffff;stop-opacity:1"
         offset="1"
         id="stop102" /></linearGradient><linearGradient
       xlink:href="#linearGradient101"
       id="linearGradient71"
       gradientUnits="userSpaceOnUse"
       x1="0.072134003"
       y1="22.339701"
       x2="23.991274"
       y2="1" /><linearGradient
       xlink:href="#linearGradient101"
       id="linearGradient72"
       gradientUnits="userSpaceOnUse"
       x1="0.072134003"
       y1="22.339701"
       x2="23.991274"
       y2="1" /><linearGradient
       xlink:href="#linearGradient11"
       id="linearGradient73"
       gradientUnits="userSpaceOnUse"
       gradientTransform="translate(-48.67785,-71.848531)"
       x1="0.072134003"
       y1="22.339701"
       x2="23.991274"
       y2="1" /><linearGradient
       xlink:href="#linearGradient101"
       id="linearGradient74"
       gradientUnits="userSpaceOnUse"
       x1="0.072134003"
       y1="22.339701"
       x2="23.991274"
       y2="1" /><linearGradient
       xlink:href="#linearGradient11"
       id="linearGradient75"
       gradientUnits="userSpaceOnUse"
       x1="0.60995334"
       y1="23.569002"
       x2="23.991274"
       y2="1" /><linearGradient
       xlink:href="#linearGradient11"
       id="linearGradient79"
       gradientUnits="userSpaceOnUse"
       gradientTransform="translate(-739.64427,3.2258305)"
       x1="102.79646"
       y1="162.35774"
       x2="131.17584"
       y2="133.97836" /></defs><g
     id="layer1"
     transform="translate(637.09779,-137.45421)"><rect
       style="fill:none;fill-opacity:1;stroke:url(#linearGradient79);stroke-width:0.5;stroke-linecap:round;stroke-linejoin:round;stroke-dasharray:none;paint-order:stroke fill markers"
       id="rect41"
       width="27.879385"
       height="27.879385"
       x="-636.84778"
       y="137.70421"
       ry="1.3229166" /><g
       style="opacity:1;fill:url(#linearGradient75);fill-opacity:1"
       id="g71"
       transform="matrix(0.55141681,0,0,0.55141681,-602.68091,182.56122)"><g
         id="g68"
         stroke-width="0"
         style="fill:url(#linearGradient71);fill-opacity:1" /><g
         id="g69"
         stroke-linecap="round"
         stroke-linejoin="round"
         style="fill:url(#linearGradient72);fill-opacity:1" /><g
         id="g70"
         style="fill:url(#linearGradient74);fill-opacity:1"><path
           fill-rule="evenodd"
           clip-rule="evenodd"
           d="m -24.87845,-53.478131 0.0019,0.0026 c 0.3294,0.4302 0.4875,1.8586 -1.7755,1.6049 -0.6662,-0.0746 -1.5976,-0.2064 -2.717,-0.6308 -0.7537,-0.2858 -1.4102,-0.6445 -1.9504,-0.9949 -0.8885,0.3576 -1.8466,0.5774 -2.8471,0.6335 -1.3677,1.8298 -3.5511,3.0143 -6.01129,3.0143 -0.80849,0 -1.58866,-0.1283 -2.32028,-0.3661 -0.43957,0.2552 -0.93939,0.5037 -1.49184,0.7132 -1.11938,0.4244 -2.0484,0.5826 -2.71697,0.6308 -0.50064,0.0361 -0.85269,0.0104 -1.026822,-0.0098 -0.381657,-0.0442 -0.724574,-0.2617 -0.871964,-0.6284 -0.129323,-0.3218 -0.08254,-0.6878 0.123403,-0.9669 0.252655,-0.3445 0.484902,-0.7055 0.704435,-1.0717 0.428118,-0.7143 0.847948,-1.4844 0.954208,-2.3222 -0.5457,-1.0406 -0.85417,-2.225 -0.85417,-3.4789 0,-2.9942 1.75455,-5.57853 4.29158,-6.78104 1.00985,-3.866 4.52596,-6.71896 8.70841,-6.71896 4.9706,0 9,4.02944 9,9 0,1.3736 -0.3084,2.6778 -0.8605,3.8448 -0.1903,1.7239 0.6762,3.1756 1.6599,4.5256 z m -16.79939,-8.3704 c 0,-3.86599 3.13399,-7 6.99999,-7 3.866,0 7,3.13401 7,7 0,1.1198 -0.2622,2.1756 -0.7277,3.1118 -0.0481,0.0967 -0.0802,0.2006 -0.0951,0.3076 -0.2188,1.5749 0.1506,3.0106 0.905,4.3889 -1.092,-0.2632 -2.1211,-0.7452 -3.03,-1.4048 -0.2976,-0.216 -0.6897,-0.2512 -1.021,-0.0918 -0.916,0.4408 -1.9433,0.6883 -3.0312,0.6883 -3.866,0 -6.99999,-3.134 -6.99999,-7 z m -1.99648,0.2543 c 0.11536,4.1586 3.05176,7.6121 6.96387,8.5152 -0.9461,0.7694 -2.1529,1.2305 -3.46739,1.2305 -0.72931,0 -1.42312,-0.1414 -2.0573,-0.3974 -0.30124,-0.1216 -0.64278,-0.0893 -0.91587,0.0866 -0.43887,0.2828 -0.96068,0.5651 -1.54804,0.7878 -0.38988,0.1478 -0.74617,0.2546 -1.06434,0.3313 0.33232,-0.6071 0.66886,-1.3304 0.82398,-2.0112 0.07659,-0.3361 0.11876,-0.6632 0.13781,-0.9705 0.01223,-0.1973 -0.03433,-0.3939 -0.1338,-0.5648 -0.47187,-0.8108 -0.74244,-1.7532 -0.74244,-2.7618 0,-1.7096 0.77999,-3.237 2.00352,-4.2457 z"
           fill="#ffffff"
           id="path69"
           style="fill:url(#linearGradient73);fill-opacity:1" /></g></g><path
       style="font-size:2.79493px;-inkscape-font-specification:sans-serif;text-align:center;text-anchor:middle;fill:#ffffff;stroke-width:0.99033;stroke-linejoin:round;stroke-dasharray:2.97099, 0.99033;paint-order:stroke fill markers"
       d="m -626.02578,163.35632 q -0.0751,0.0327 -0.13647,0.0614 -0.0601,0.0287 -0.15831,0.06 -0.0833,0.0259 -0.18151,0.0437 -0.0969,0.0191 -0.21426,0.0191 -0.22108,0 -0.40259,-0.0614 -0.18014,-0.0628 -0.31388,-0.19515 -0.13101,-0.12965 -0.20471,-0.3289 -0.0737,-0.20061 -0.0737,-0.46536 0,-0.25111 0.071,-0.44899 0.071,-0.19789 0.20471,-0.33436 0.12965,-0.13237 0.31252,-0.20198 0.18424,-0.0696 0.40805,-0.0696 0.16376,0 0.32617,0.0396 0.16376,0.0396 0.36301,0.1392 v 0.32071 h -0.0205 q -0.16786,-0.14057 -0.33299,-0.20471 -0.16513,-0.0641 -0.35346,-0.0641 -0.15421,0 -0.2784,0.0505 -0.12283,0.0491 -0.21972,0.15421 -0.0942,0.10235 -0.14739,0.25929 -0.0519,0.15558 -0.0519,0.36029 0,0.21426 0.0573,0.36847 0.0587,0.15421 0.15012,0.25111 0.0955,0.10098 0.22244,0.15011 0.12829,0.0478 0.27022,0.0478 0.19515,0 0.36574,-0.0669 0.17059,-0.0669 0.31934,-0.20061 h 0.0191 z m 1.93652,0.14739 h -0.27021 v -0.99488 h -1.01398 v 0.99488 h -0.27021 v -2.03206 h 0.27021 v 0.79699 h 1.01398 v -0.79699 h 0.27021 z m 2.14806,0 h -0.28795 l -0.19925,-0.56636 h -0.87888 l -0.19924,0.56636 h -0.27431 l 0.73967,-2.03206 h 0.36029 z m -0.57045,-0.79836 -0.35619,-0.9976 -0.35755,0.9976 z m 2.16443,-0.99351 h -0.72602 v 1.79187 h -0.27022 v -1.79187 h -0.72602 v -0.24019 h 1.72226 z m 2.00067,1.01125 h -0.74377 v 0.74377 h -0.22654 v -0.74377 h -0.74377 v -0.21835 h 0.74377 v -0.74377 h 0.22654 v 0.74377 h 0.74377 z"
       id="text90"
       aria-label="CHAT+" /></g></svg>
