<?xml version="1.0" encoding="UTF-8" standalone="no"?>
<!-- Created with Inkscape (http://www.inkscape.org/) -->

<svg
   width="107.26074"
   height="107.26068"
   viewBox="0 0 28.379404 28.379389"
   version="1.1"
   id="svg1"
   xml:space="preserve"
   xmlns:xlink="http://www.w3.org/1999/xlink"
   xmlns="http://www.w3.org/2000/svg"
   xmlns:svg="http://www.w3.org/2000/svg"><defs
     id="defs1"><linearGradient
       id="linearGradient11"><stop
         style="stop-color:#dd2080;stop-opacity:1;"
         offset="0"
         id="stop10" /><stop
         style="stop-color:#00dd88;stop-opacity:1;"
         offset="1"
         id="stop11" /></linearGradient><linearGradient
       xlink:href="#linearGradient11"
       id="linearGradient78"
       gradientUnits="userSpaceOnUse"
       gradientTransform="translate(-702.76934,3.2258305)"
       x1="102.79646"
       y1="162.35774"
       x2="131.17584"
       y2="133.97836" /></defs><g
     id="layer1"
     transform="translate(600.22291,-137.45421)"><rect
       style="fill:none;fill-opacity:1;stroke:url(#linearGradient78);stroke-width:0.5;stroke-linecap:round;stroke-linejoin:round;stroke-dasharray:none;paint-order:stroke fill markers"
       id="rect42"
       width="27.879385"
       height="27.879385"
       x="-599.9729"
       y="137.70421"
       ry="1.3229166" /><g
       id="g51"
       transform="matrix(0.55121525,0,0,0.55121525,-592.64779,142.94405)"
       style="opacity:0.539519"><path
         d="M 0,0 H 24 V 24 H 0 Z"
         fill="none"
         id="path50" /><path
         id="path51"
         style="color:#000000;fill:#dddddd;fill-opacity:1;stroke-width:0.846512;stroke-linecap:round;stroke-linejoin:round;paint-order:stroke fill markers"
         d="M 2.6867884,-5.0762738e-7 A 2.6869189,2.686968 0 0 0 4e-7,2.6864015 a 2.6869189,2.686968 0 0 0 2.686788,2.686838 c 8.8346266,0 15.9378836,7.1055695 15.9378836,15.9403575 A 2.6869189,2.686968 0 0 0 21.31321,24 2.6869189,2.686968 0 0 0 24,21.313597 C 24,9.5745215 14.42565,-5.0762738e-7 2.6867884,-5.0762738e-7 Z m 0,9.05353000762738 A 2.6869147,2.6869638 0 0 0 4e-7,11.740372 2.6869147,2.6869638 0 0 0 2.6867884,14.42721 c 3.834559,0 6.886264,3.051763 6.886264,6.886387 A 2.6869147,2.6869638 0 0 0 12.259405,24 2.6869147,2.6869638 0 0 0 14.946197,21.313597 c 0,-6.738907 -5.5206246,-12.2600675 -12.2594086,-12.2600675 z m 0.09318,9.4314955 a 2.7343611,2.7344112 0 0 0 -2.734469,2.734526 2.7343611,2.7344112 0 0 0 2.734469,2.734518 2.7343611,2.7344112 0 0 0 2.734035,-2.734518 2.7343611,2.7344112 0 0 0 -2.734035,-2.734526 z" /></g><path
       style="font-size:2.79493px;-inkscape-font-specification:sans-serif;text-align:center;text-anchor:middle;fill:#ffffff;stroke-width:0.99033;stroke-linejoin:round;stroke-dasharray:2.97099, 0.99033;paint-order:stroke fill markers"
       d="m -588.18946,162.87867 q 0,0.15148 -0.0573,0.26748 -0.0573,0.116 -0.15421,0.19106 -0.11464,0.0901 -0.25248,0.12829 -0.13647,0.0382 -0.348,0.0382 h -0.72057 v -2.03206 h 0.60184 q 0.22245,0 0.33299,0.0164 0.11054,0.0164 0.21153,0.0682 0.11191,0.0587 0.1624,0.15149 0.0505,0.0914 0.0505,0.21972 0,0.14466 -0.0737,0.24701 -0.0737,0.10099 -0.19652,0.1624 v 0.0109 q 0.20608,0.0423 0.32481,0.1815 0.11873,0.13784 0.11873,0.34937 z m -0.45445,-0.91572 q 0,-0.0737 -0.0246,-0.12419 -0.0246,-0.0505 -0.0791,-0.0819 -0.0641,-0.0368 -0.15558,-0.045 -0.0914,-0.01 -0.22654,-0.01 h -0.32207 v 0.58682 h 0.34936 q 0.12692,0 0.20198,-0.0123 0.0751,-0.0136 0.1392,-0.0546 0.0641,-0.0409 0.0901,-0.10508 0.0273,-0.0655 0.0273,-0.15421 z m 0.17332,0.92664 q 0,-0.12283 -0.0368,-0.19516 -0.0369,-0.0723 -0.13374,-0.12282 -0.0655,-0.0341 -0.15967,-0.0437 -0.0928,-0.0109 -0.22655,-0.0109 h -0.42442 v 0.75605 h 0.35755 q 0.17741,0 0.29069,-0.0177 0.11327,-0.0191 0.1856,-0.0682 0.0764,-0.0532 0.1119,-0.12145 0.0355,-0.0682 0.0355,-0.17605 z m 1.95017,0.61412 h -1.28556 v -2.03206 h 0.27021 v 1.79187 h 1.01535 z m 1.75775,-1.79869 q 0.12419,0.13647 0.18969,0.33435 0.0669,0.19789 0.0669,0.44899 0,0.25111 -0.0682,0.45036 -0.0669,0.19788 -0.18833,0.33026 -0.12556,0.13783 -0.29751,0.20743 -0.17059,0.0696 -0.39031,0.0696 -0.21426,0 -0.3903,-0.071 -0.17469,-0.071 -0.29751,-0.20607 -0.12283,-0.13511 -0.1897,-0.33163 -0.0655,-0.19652 -0.0655,-0.44899 0,-0.24838 0.0655,-0.44489 0.0655,-0.19789 0.19106,-0.33845 0.1201,-0.13374 0.29751,-0.20471 0.17878,-0.071 0.38894,-0.071 0.21836,0 0.39168,0.0723 0.17468,0.071 0.29614,0.20334 z m -0.0246,0.78334 q 0,-0.39576 -0.17741,-0.61002 -0.17741,-0.21563 -0.48447,-0.21563 -0.30979,0 -0.4872,0.21563 -0.17605,0.21426 -0.17605,0.61002 0,0.39986 0.18014,0.61276 0.18014,0.21153 0.48311,0.21153 0.30296,0 0.48174,-0.21153 0.18014,-0.2129 0.18014,-0.61276 z m 2.40463,0.86523 q -0.1665,0.0764 -0.36438,0.13374 -0.19652,0.056 -0.38076,0.056 -0.23746,0 -0.43534,-0.0655 -0.19788,-0.0655 -0.33708,-0.19652 -0.14057,-0.13238 -0.21699,-0.33026 -0.0764,-0.19925 -0.0764,-0.46537 0,-0.4872 0.28386,-0.76833 0.28523,-0.2825 0.78198,-0.2825 0.17332,0 0.35346,0.0423 0.18151,0.0409 0.39031,0.14057 v 0.3207 h -0.0246 q -0.0423,-0.0327 -0.12283,-0.086 -0.0805,-0.0532 -0.15831,-0.0887 -0.0942,-0.0423 -0.21425,-0.0696 -0.11873,-0.0287 -0.27022,-0.0287 -0.34118,0 -0.54042,0.21972 -0.19789,0.21835 -0.19789,0.59228 0,0.39441 0.20744,0.61412 0.20744,0.21836 0.56499,0.21836 0.13101,0 0.26066,-0.0259 0.13101,-0.0259 0.22927,-0.0669 v -0.4981 h -0.54452 v -0.23746 h 0.81201 z"
       id="text91"
       aria-label="BLOG" /></g></svg>
