<?xml version="1.0" encoding="UTF-8" standalone="no"?>
<!-- Created with Inkscape (http://www.inkscape.org/) -->

<svg
   width="66.042297mm"
   height="84.938248mm"
   viewBox="0 0 66.042297 84.938248"
   version="1.1"
   id="svg1"
   inkscape:version="1.3.2 (091e20e, 2023-11-25, custom)"
   sodipodi:docname="Kaatan Chat Arch.svg"
   xmlns:inkscape="http://www.inkscape.org/namespaces/inkscape"
   xmlns:sodipodi="http://sodipodi.sourceforge.net/DTD/sodipodi-0.dtd"
   xmlns="http://www.w3.org/2000/svg"
   xmlns:svg="http://www.w3.org/2000/svg">
  <sodipodi:namedview
     id="namedview1"
     pagecolor="#ffffff"
     bordercolor="#000000"
     borderopacity="0.25"
     inkscape:showpageshadow="2"
     inkscape:pageopacity="0.0"
     inkscape:pagecheckerboard="0"
     inkscape:deskcolor="#d1d1d1"
     inkscape:document-units="mm"
     showguides="true"
     inkscape:zoom="1.4142136"
     inkscape:cx="116.31906"
     inkscape:cy="172.1805"
     inkscape:window-width="1366"
     inkscape:window-height="715"
     inkscape:window-x="-8"
     inkscape:window-y="-8"
     inkscape:window-maximized="1"
     inkscape:current-layer="layer1" />
  <defs
     id="defs1" />
  <g
     inkscape:label="Camada 1"
     inkscape:groupmode="layer"
     id="layer1"
     transform="translate(-293.72919,-47.707607)">
    <rect
       style="fill:#002e2c;fill-opacity:1;stroke-width:0.2;stroke-linecap:round;stroke-linejoin:round;paint-order:fill markers stroke"
       id="rect1"
       width="66.042297"
       height="84.938248"
       x="293.72919"
       y="47.707607"
       ry="2.80633" />
    <g
       id="path10"
       transform="translate(20.3983,-0.45714772)"
       style="fill:#00cfae;fill-opacity:1">
      <path
         style="color:#000000;fill:#00cfae;fill-opacity:1;stroke-linecap:round;stroke-linejoin:round;-inkscape-stroke:none;paint-order:fill markers stroke"
         d="m 308.9245,94.478461 v 3.18263"
         id="path14" />
      <g
         id="g12"
         style="fill:#00cfae;fill-opacity:1">
        <path
           d="m 309.49928,97.631531 -0.44956,0.89912 a 0.14,0.14 0 0 1 -0.25044,0 l -0.44956,-0.89912 a 0.17304952,0.17304952 0 0 1 0.15478,-0.25044 h 0.84 a 0.17304952,0.17304952 0 0 1 0.15478,0.25044 z"
           style="color:#000000;fill:#00cfae;fill-opacity:1;fill-rule:evenodd;-inkscape-stroke:none"
           id="path13" />
        <path
           d="m 308.34972,94.508021 0.44956,-0.89912 a 0.14,0.14 0 0 1 0.25044,0 l 0.44956,0.89912 a 0.17304952,0.17304952 0 0 1 -0.15478,0.25044 h -0.84 a 0.17304952,0.17304952 0 0 1 -0.15478,-0.25044 z"
           style="color:#000000;fill:#00cfae;fill-opacity:1;fill-rule:evenodd;-inkscape-stroke:none"
           id="path12" />
      </g>
      <path
         style="color:#000000;fill:#00cfae;fill-opacity:1;stroke-linecap:round;stroke-linejoin:round;-inkscape-stroke:none;paint-order:fill markers stroke"
         d="m 308.92383,94.378906 a 0.1,0.1 0 0 0 -0.0996,0.09961 v 3.18164 a 0.1,0.1 0 0 0 0.0996,0.101563 0.1,0.1 0 0 0 0.10156,-0.101563 v -3.18164 a 0.1,0.1 0 0 0 -0.10156,-0.09961 z"
         id="path15" />
    </g>
    <text
       xml:space="preserve"
       style="font-weight:bold;font-size:3.52777px;font-family:Calibri;-inkscape-font-specification:'Calibri Bold';text-align:center;text-anchor:middle;fill:#ffccaa;fill-opacity:1;stroke:none;stroke-width:0.2;stroke-linecap:round;stroke-linejoin:round;paint-order:fill markers stroke"
       x="329.2272"
       y="54.529179"
       id="text1"><tspan
         sodipodi:role="line"
         id="tspan1"
         style="fill:#ffccaa;fill-opacity:1;stroke:none;stroke-width:0.2"
         x="329.2272"
         y="54.529179">User</tspan></text>
    <text
       xml:space="preserve"
       style="font-weight:bold;font-size:3.52777px;font-family:Calibri;-inkscape-font-specification:'Calibri Bold';text-align:center;text-anchor:middle;fill:#ffccaa;fill-opacity:1;stroke:none;stroke-width:0.2;stroke-linecap:round;stroke-linejoin:round;paint-order:fill markers stroke"
       x="329.32367"
       y="66.740417"
       id="text2"><tspan
         sodipodi:role="line"
         id="tspan2"
         style="fill:#ffccaa;fill-opacity:1;stroke:none;stroke-width:0.2"
         x="329.32367"
         y="66.740417">UI</tspan></text>
    <g
       id="g16"
       transform="translate(19.770316,-5.4333456)"
       style="fill:#ffccaa;fill-opacity:1">
      <g
         id="g4"
         transform="translate(-5.1417641)"
         style="fill:#ffccaa;fill-opacity:1">
        <text
           xml:space="preserve"
           style="font-weight:bold;font-size:3.52777px;font-family:Calibri;-inkscape-font-specification:'Calibri Bold';text-align:center;text-anchor:middle;opacity:1;fill:#ffccaa;fill-opacity:1;stroke:none;stroke-width:0.2;stroke-linecap:round;stroke-linejoin:round;paint-order:fill markers stroke"
           x="303.51617"
           y="84.524529"
           id="text3"><tspan
             sodipodi:role="line"
             id="tspan3"
             style="fill:#ffccaa;fill-opacity:1;stroke:none;stroke-width:0.2"
             x="303.51617"
             y="84.524529">Acácia LIB</tspan></text>
        <text
           xml:space="preserve"
           style="font-weight:bold;font-size:3.52777px;font-family:Calibri;-inkscape-font-specification:'Calibri Bold';text-align:center;text-anchor:middle;opacity:1;fill:#ffccaa;fill-opacity:1;stroke:none;stroke-width:0.2;stroke-linecap:round;stroke-linejoin:round;paint-order:fill markers stroke"
           x="326.38266"
           y="84.524529"
           id="text4"><tspan
             sodipodi:role="line"
             id="tspan4"
             style="fill:#ffccaa;fill-opacity:1;stroke:none;stroke-width:0.2"
             x="326.38266"
             y="84.524529">kaatan.js</tspan></text>
      </g>
    </g>
    <text
       xml:space="preserve"
       style="font-weight:bold;font-size:3.52777px;font-family:Calibri;-inkscape-font-specification:'Calibri Bold';text-align:center;text-anchor:middle;fill:#ffccaa;fill-opacity:1;stroke:none;stroke-width:0.2;stroke-linecap:round;stroke-linejoin:round;paint-order:fill markers stroke"
       x="329.24072"
       y="91.292091"
       id="text5"><tspan
         sodipodi:role="line"
         id="tspan5"
         style="fill:#ffccaa;fill-opacity:1;stroke:none;stroke-width:0.2"
         x="329.24072"
         y="91.292091">KSW</tspan></text>
    <text
       xml:space="preserve"
       style="font-weight:bold;font-size:3.52777px;font-family:Calibri;-inkscape-font-specification:'Calibri Bold';text-align:center;text-anchor:middle;fill:#ffccaa;fill-opacity:1;stroke:none;stroke-width:0.2;stroke-linecap:round;stroke-linejoin:round;paint-order:fill markers stroke"
       x="329.22635"
       y="103.53261"
       id="text6"><tspan
         sodipodi:role="line"
         id="tspan6"
         style="fill:#ffccaa;fill-opacity:1;stroke:none;stroke-width:0.2"
         x="329.22635"
         y="103.53261">Kaatan Server</tspan></text>
    <g
       id="g15"
       transform="translate(21.362659,4.2905748)"
       style="fill:#ffccaa;fill-opacity:1">
      <text
         xml:space="preserve"
         style="font-weight:bold;font-size:3.52777px;font-family:Calibri;-inkscape-font-specification:'Calibri Bold';text-align:center;text-anchor:middle;opacity:1;fill:#ffccaa;fill-opacity:1;stroke:none;stroke-width:0.2;stroke-linecap:round;stroke-linejoin:round;paint-order:fill markers stroke"
         x="309.55334"
         y="111.57212"
         id="text7"><tspan
           sodipodi:role="line"
           id="tspan7"
           style="fill:#ffccaa;fill-opacity:1;stroke:none;stroke-width:0.2"
           x="309.55334"
           y="111.57212">Application</tspan></text>
      <text
         xml:space="preserve"
         style="font-weight:bold;font-size:3.52777px;font-family:Calibri;-inkscape-font-specification:'Calibri Bold';text-align:center;text-anchor:middle;opacity:1;fill:#ffccaa;fill-opacity:1;stroke:none;stroke-width:0.2;stroke-linecap:round;stroke-linejoin:round;paint-order:fill markers stroke"
         x="329.78558"
         y="111.57212"
         id="text8"><tspan
           sodipodi:role="line"
           id="tspan8"
           style="fill:#ffccaa;fill-opacity:1;stroke:none;stroke-width:0.2"
           x="329.78558"
           y="111.57212">Data</tspan></text>
      <text
         xml:space="preserve"
         style="font-weight:bold;font-size:3.52777px;font-family:Calibri;-inkscape-font-specification:'Calibri Bold';text-align:center;text-anchor:middle;opacity:1;fill:#ffccaa;fill-opacity:1;stroke:none;stroke-width:0.2;stroke-linecap:round;stroke-linejoin:round;paint-order:fill markers stroke"
         x="284.47964"
         y="111.57212"
         id="text9"><tspan
           sodipodi:role="line"
           id="tspan9"
           style="fill:#ffccaa;fill-opacity:1;stroke:none;stroke-width:0.2"
           x="284.47964"
           y="111.57212">Gladiator</tspan></text>
    </g>
    <text
       xml:space="preserve"
       style="font-weight:bold;font-size:3.52777px;font-family:Calibri;-inkscape-font-specification:'Calibri Bold';text-align:center;text-anchor:middle;fill:#ffccaa;fill-opacity:1;stroke:none;stroke-width:0.2;stroke-linecap:round;stroke-linejoin:round;paint-order:fill markers stroke"
       x="329.26166"
       y="128.06358"
       id="text10"><tspan
         sodipodi:role="line"
         id="tspan10"
         style="fill:#ffccaa;fill-opacity:1;stroke:none;stroke-width:0.2"
         x="329.26166"
         y="128.06358">DB</tspan></text>
    <g
       id="g25"
       transform="rotate(90,328.54087,97.518133)"
       style="fill:#00cfae;fill-opacity:1">
      <path
         style="color:#000000;fill:#00cfae;fill-opacity:1;stroke-linecap:round;stroke-linejoin:round;-inkscape-stroke:none;paint-order:fill markers stroke"
         d="m 308.9245,94.478461 v 3.18263"
         id="path22" />
      <g
         id="g24"
         style="fill:#00cfae;fill-opacity:1">
        <path
           d="m 309.49928,97.631531 -0.44956,0.89912 a 0.14,0.14 0 0 1 -0.25044,0 l -0.44956,-0.89912 a 0.17304952,0.17304952 0 0 1 0.15478,-0.25044 h 0.84 a 0.17304952,0.17304952 0 0 1 0.15478,0.25044 z"
           style="color:#000000;fill:#00cfae;fill-opacity:1;fill-rule:evenodd;-inkscape-stroke:none"
           id="path23" />
        <path
           d="m 308.34972,94.508021 0.44956,-0.89912 a 0.14,0.14 0 0 1 0.25044,0 l 0.44956,0.89912 a 0.17304952,0.17304952 0 0 1 -0.15478,0.25044 h -0.84 a 0.17304952,0.17304952 0 0 1 -0.15478,-0.25044 z"
           style="color:#000000;fill:#00cfae;fill-opacity:1;fill-rule:evenodd;-inkscape-stroke:none"
           id="path24" />
      </g>
      <path
         style="color:#000000;fill:#00cfae;fill-opacity:1;stroke-linecap:round;stroke-linejoin:round;-inkscape-stroke:none;paint-order:fill markers stroke"
         d="m 308.92383,94.378906 a 0.1,0.1 0 0 0 -0.0996,0.09961 v 3.18164 a 0.1,0.1 0 0 0 0.0996,0.101563 0.1,0.1 0 0 0 0.10156,-0.101563 v -3.18164 a 0.1,0.1 0 0 0 -0.10156,-0.09961 z"
         id="path25" />
    </g>
    <g
       id="g33"
       transform="translate(20.3983,-36.534822)"
       style="fill:#00cfae;fill-opacity:1">
      <path
         style="color:#000000;fill:#00cfae;fill-opacity:1;stroke-linecap:round;stroke-linejoin:round;-inkscape-stroke:none;paint-order:fill markers stroke"
         d="m 308.9245,94.478461 v 3.18263"
         id="path30" />
      <g
         id="g32"
         style="fill:#00cfae;fill-opacity:1">
        <path
           d="m 309.49928,97.631531 -0.44956,0.89912 a 0.14,0.14 0 0 1 -0.25044,0 l -0.44956,-0.89912 a 0.17304952,0.17304952 0 0 1 0.15478,-0.25044 h 0.84 a 0.17304952,0.17304952 0 0 1 0.15478,0.25044 z"
           style="color:#000000;fill:#00cfae;fill-opacity:1;fill-rule:evenodd;-inkscape-stroke:none"
           id="path31" />
        <path
           d="m 308.34972,94.508021 0.44956,-0.89912 a 0.14,0.14 0 0 1 0.25044,0 l 0.44956,0.89912 a 0.17304952,0.17304952 0 0 1 -0.15478,0.25044 h -0.84 a 0.17304952,0.17304952 0 0 1 -0.15478,-0.25044 z"
           style="color:#000000;fill:#00cfae;fill-opacity:1;fill-rule:evenodd;-inkscape-stroke:none"
           id="path32" />
      </g>
      <path
         style="color:#000000;fill:#00cfae;fill-opacity:1;stroke-linecap:round;stroke-linejoin:round;-inkscape-stroke:none;paint-order:fill markers stroke"
         d="m 308.92383,94.378906 a 0.1,0.1 0 0 0 -0.0996,0.09961 v 3.18164 a 0.1,0.1 0 0 0 0.0996,0.101563 0.1,0.1 0 0 0 0.10156,-0.101563 v -3.18164 a 0.1,0.1 0 0 0 -0.10156,-0.09961 z"
         id="path33" />
    </g>
    <g
       id="g37"
       transform="translate(20.3983,12.428984)"
       style="fill:#00cfae;fill-opacity:1">
      <path
         style="color:#000000;fill:#00cfae;fill-opacity:1;stroke-linecap:round;stroke-linejoin:round;-inkscape-stroke:none;paint-order:fill markers stroke"
         d="m 308.9245,94.478461 v 3.18263"
         id="path34" />
      <g
         id="g36"
         style="fill:#00cfae;fill-opacity:1">
        <path
           d="m 309.49928,97.631531 -0.44956,0.89912 a 0.14,0.14 0 0 1 -0.25044,0 l -0.44956,-0.89912 a 0.17304952,0.17304952 0 0 1 0.15478,-0.25044 h 0.84 a 0.17304952,0.17304952 0 0 1 0.15478,0.25044 z"
           style="color:#000000;fill:#00cfae;fill-opacity:1;fill-rule:evenodd;-inkscape-stroke:none"
           id="path35" />
        <path
           d="m 308.34972,94.508021 0.44956,-0.89912 a 0.14,0.14 0 0 1 0.25044,0 l 0.44956,0.89912 a 0.17304952,0.17304952 0 0 1 -0.15478,0.25044 h -0.84 a 0.17304952,0.17304952 0 0 1 -0.15478,-0.25044 z"
           style="color:#000000;fill:#00cfae;fill-opacity:1;fill-rule:evenodd;-inkscape-stroke:none"
           id="path36" />
      </g>
      <path
         style="color:#000000;fill:#00cfae;fill-opacity:1;stroke-linecap:round;stroke-linejoin:round;-inkscape-stroke:none;paint-order:fill markers stroke"
         d="m 308.92383,94.378906 a 0.1,0.1 0 0 0 -0.0996,0.09961 v 3.18164 a 0.1,0.1 0 0 0 0.0996,0.101563 0.1,0.1 0 0 0 0.10156,-0.101563 v -3.18164 a 0.1,0.1 0 0 0 -0.10156,-0.09961 z"
         id="path37" />
    </g>
    <path
       d="m 329.89758,122.43022 -0.44956,0.89912 a 0.14,0.14 0 0 1 -0.25044,0 l -0.44956,-0.89912 a 0.17304952,0.17304952 0 0 1 0.15478,-0.25044 h 0.84 a 0.17304952,0.17304952 0 0 1 0.15478,0.25044 z"
       style="color:#000000;fill:#00bb77;fill-opacity:1;fill-rule:evenodd;-inkscape-stroke:none"
       id="path39" />
    <path
       d="m 350.58725,119.30671 0.44956,-0.89912 a 0.14,0.14 0 0 1 0.25044,0 l 0.44956,0.89912 a 0.17304952,0.17304952 0 0 1 -0.15478,0.25044 h -0.84 a 0.17304952,0.17304952 0 0 1 -0.15478,-0.25044 z"
       style="color:#000000;fill:#00bb77;fill-opacity:1;fill-rule:evenodd;-inkscape-stroke:none"
       id="path40" />
    <path
       style="color:#000000;fill:#00cfae;fill-opacity:1;stroke-linecap:round;stroke-linejoin:round;-inkscape-stroke:none;paint-order:fill markers stroke"
       d="m 351.13282,119.17759 c -0.0549,2.2e-4 -0.0994,0.0447 -0.0996,0.0996 v 0.81861 l -21.81069,-0.0371 v 1.62796 0.77221 c -8.7e-4,0.0557 0.0439,0.10135 0.0996,0.10157 0.0565,8.9e-4 0.10245,-0.0451 0.10156,-0.10157 v -0.77644 -1.39424 l 21.81069,-0.006 v -1.00475 c -2.2e-4,-0.0557 -0.0459,-0.10047 -0.10156,-0.0996 z"
       id="path41"
       sodipodi:nodetypes="ccccccccccccc" />
    <g
       id="g45"
       transform="rotate(-90,322.55994,101.341)"
       style="fill:#00cfae;fill-opacity:1">
      <path
         style="color:#000000;fill:#00cfae;fill-opacity:1;stroke-linecap:round;stroke-linejoin:round;-inkscape-stroke:none;paint-order:fill markers stroke"
         d="m 308.9245,94.478461 v 3.18263"
         id="path42" />
      <g
         id="g44"
         style="fill:#00cfae;fill-opacity:1">
        <path
           d="m 309.49928,97.631531 -0.44956,0.89912 a 0.14,0.14 0 0 1 -0.25044,0 l -0.44956,-0.89912 a 0.17304952,0.17304952 0 0 1 0.15478,-0.25044 h 0.84 a 0.17304952,0.17304952 0 0 1 0.15478,0.25044 z"
           style="color:#000000;fill:#00cfae;fill-opacity:1;fill-rule:evenodd;-inkscape-stroke:none"
           id="path43" />
        <path
           d="m 308.34972,94.508021 0.44956,-0.89912 a 0.14,0.14 0 0 1 0.25044,0 l 0.44956,0.89912 a 0.17304952,0.17304952 0 0 1 -0.15478,0.25044 h -0.84 a 0.17304952,0.17304952 0 0 1 -0.15478,-0.25044 z"
           style="color:#000000;fill:#00cfae;fill-opacity:1;fill-rule:evenodd;-inkscape-stroke:none"
           id="path44" />
      </g>
      <path
         style="color:#000000;fill:#00cfae;fill-opacity:1;stroke-linecap:round;stroke-linejoin:round;-inkscape-stroke:none;paint-order:fill markers stroke"
         d="m 308.92383,94.378906 a 0.1,0.1 0 0 0 -0.0996,0.09961 v 3.18164 a 0.1,0.1 0 0 0 0.0996,0.101563 0.1,0.1 0 0 0 0.10156,-0.101563 v -3.18164 a 0.1,0.1 0 0 0 -0.10156,-0.09961 z"
         id="path45" />
    </g>
    <g
       id="g49"
       transform="rotate(-90,335.66692,88.234018)"
       style="fill:#00cfae;fill-opacity:1">
      <path
         style="color:#000000;fill:#00cfae;fill-opacity:1;stroke-linecap:round;stroke-linejoin:round;-inkscape-stroke:none;paint-order:fill markers stroke"
         d="m 308.9245,94.478461 v 3.18263"
         id="path46" />
      <g
         id="g48"
         style="fill:#00cfae;fill-opacity:1">
        <path
           d="m 309.49928,97.631531 -0.44956,0.89912 a 0.14,0.14 0 0 1 -0.25044,0 l -0.44956,-0.89912 a 0.17304952,0.17304952 0 0 1 0.15478,-0.25044 h 0.84 a 0.17304952,0.17304952 0 0 1 0.15478,0.25044 z"
           style="color:#000000;fill:#00cfae;fill-opacity:1;fill-rule:evenodd;-inkscape-stroke:none"
           id="path47" />
        <path
           d="m 308.34972,94.508021 0.44956,-0.89912 a 0.14,0.14 0 0 1 0.25044,0 l 0.44956,0.89912 a 0.17304952,0.17304952 0 0 1 -0.15478,0.25044 h -0.84 a 0.17304952,0.17304952 0 0 1 -0.15478,-0.25044 z"
           style="color:#000000;fill:#00cfae;fill-opacity:1;fill-rule:evenodd;-inkscape-stroke:none"
           id="path48" />
      </g>
      <path
         style="color:#000000;fill:#00cfae;fill-opacity:1;stroke-linecap:round;stroke-linejoin:round;-inkscape-stroke:none;paint-order:fill markers stroke"
         d="m 308.92383,94.378906 a 0.1,0.1 0 0 0 -0.0996,0.09961 v 3.18164 a 0.1,0.1 0 0 0 0.0996,0.101563 0.1,0.1 0 0 0 0.10156,-0.101563 v -3.18164 a 0.1,0.1 0 0 0 -0.10156,-0.09961 z"
         id="path49" />
    </g>
    <g
       id="g53"
       transform="translate(-0.52393446,-36.95391)"
       style="fill:#00cfae;fill-opacity:1">
      <path
         d="m 330.42151,122.88737 -0.44956,0.89912 a 0.14,0.14 0 0 1 -0.25044,0 l -0.44956,-0.89912 a 0.17304952,0.17304952 0 0 1 0.15478,-0.25044 h 0.84 a 0.17304952,0.17304952 0 0 1 0.15478,0.25044 z"
         style="color:#000000;fill:#00cfae;fill-opacity:1;fill-rule:evenodd;-inkscape-stroke:none"
         id="path51" />
      <path
         d="m 341.0932,119.76386 0.44956,-0.89912 a 0.14,0.14 0 0 1 0.25044,0 l 0.44956,0.89912 a 0.17304952,0.17304952 0 0 1 -0.15478,0.25044 h -0.84 a 0.17304952,0.17304952 0 0 1 -0.15478,-0.25044 z"
         style="color:#000000;fill:#00cfae;fill-opacity:1;fill-rule:evenodd;-inkscape-stroke:none"
         id="path52" />
      <path
         style="color:#000000;fill:#00cfae;fill-opacity:1;stroke-linecap:round;stroke-linejoin:round;-inkscape-stroke:none;paint-order:fill markers stroke"
         d="m 341.66873,119.63474 c -0.0549,2.2e-4 -0.0994,0.0447 -0.0996,0.0996 v 0.81861 l -11.82267,-0.0371 v 1.62796 0.77221 c -8.7e-4,0.0557 0.0439,0.10135 0.0996,0.10157 0.0565,8.9e-4 0.10245,-0.0451 0.10156,-0.10157 v -0.77644 -1.39424 l 11.82267,-0.006 v -1.00475 c -2.2e-4,-0.0557 -0.0459,-0.10047 -0.10156,-0.0996 z"
         id="path53"
         sodipodi:nodetypes="cccccccccccccc" />
    </g>
    <g
       id="g56"
       transform="translate(-12.172587,-49.893788)"
       style="fill:#00cfae;fill-opacity:1">
      <path
         d="m 330.42151,122.88737 -0.44956,0.89912 a 0.14,0.14 0 0 1 -0.25044,0 l -0.44956,-0.89912 a 0.17304952,0.17304952 0 0 1 0.15478,-0.25044 h 0.84 a 0.17304952,0.17304952 0 0 1 0.15478,0.25044 z"
         style="color:#000000;fill:#00cfae;fill-opacity:1;fill-rule:evenodd;-inkscape-stroke:none"
         id="path54" />
      <path
         d="m 341.0932,119.76386 0.44956,-0.89912 a 0.14,0.14 0 0 1 0.25044,0 l 0.44956,0.89912 a 0.17304952,0.17304952 0 0 1 -0.15478,0.25044 h -0.84 a 0.17304952,0.17304952 0 0 1 -0.15478,-0.25044 z"
         style="color:#000000;fill:#00cfae;fill-opacity:1;fill-rule:evenodd;-inkscape-stroke:none"
         id="path55" />
      <path
         style="color:#000000;fill:#00cfae;fill-opacity:1;stroke-linecap:round;stroke-linejoin:round;-inkscape-stroke:none;paint-order:fill markers stroke"
         d="m 341.66873,119.63474 c -0.0549,2.2e-4 -0.0994,0.0447 -0.0996,0.0996 v 0.81861 l -11.82267,-0.0371 v 1.62796 0.77221 c -8.7e-4,0.0557 0.0439,0.10135 0.0996,0.10157 0.0565,8.9e-4 0.10245,-0.0451 0.10156,-0.10157 v -0.77644 -1.39424 l 11.82267,-0.006 v -1.00475 c -2.2e-4,-0.0557 -0.0459,-0.10047 -0.10156,-0.0996 z"
         id="path56"
         sodipodi:nodetypes="cccccccccccccc" />
    </g>
    <g
       id="g59"
       transform="matrix(-1,0,0,1,671.16338,-49.893788)"
       style="fill:#00cfae;fill-opacity:1">
      <path
         d="m 330.42151,122.88737 -0.44956,0.89912 a 0.14,0.14 0 0 1 -0.25044,0 l -0.44956,-0.89912 a 0.17304952,0.17304952 0 0 1 0.15478,-0.25044 h 0.84 a 0.17304952,0.17304952 0 0 1 0.15478,0.25044 z"
         style="color:#000000;fill:#00cfae;fill-opacity:1;fill-rule:evenodd;-inkscape-stroke:none"
         id="path57" />
      <path
         d="m 341.0932,119.76386 0.44956,-0.89912 a 0.14,0.14 0 0 1 0.25044,0 l 0.44956,0.89912 a 0.17304952,0.17304952 0 0 1 -0.15478,0.25044 h -0.84 a 0.17304952,0.17304952 0 0 1 -0.15478,-0.25044 z"
         style="color:#000000;fill:#00cfae;fill-opacity:1;fill-rule:evenodd;-inkscape-stroke:none"
         id="path58" />
      <path
         style="color:#000000;fill:#00cfae;fill-opacity:1;stroke-linecap:round;stroke-linejoin:round;-inkscape-stroke:none;paint-order:fill markers stroke"
         d="m 341.66873,119.63474 c -0.0549,2.2e-4 -0.0994,0.0447 -0.0996,0.0996 v 0.81861 l -11.82267,-0.0371 v 1.62796 0.77221 c -8.7e-4,0.0557 0.0439,0.10135 0.0996,0.10157 0.0565,8.9e-4 0.10245,-0.0451 0.10156,-0.10157 v -0.77644 -1.39424 l 11.82267,-0.006 v -1.00475 c -2.2e-4,-0.0557 -0.0459,-0.10047 -0.10156,-0.0996 z"
         id="path59"
         sodipodi:nodetypes="cccccccccccccc" />
    </g>
  </g>
</svg>
